<?xml version="1.0" encoding="UTF-8"?>
<svg width="574px" height="284px" viewBox="0 0 574 284" version="1.1" xmlns="http://www.w3.org/2000/svg" xmlns:xlink="http://www.w3.org/1999/xlink">
    <title>get-in-touch</title>
    <g id="Designs-2021-FINAL" stroke="none" stroke-width="1" fill="none" fill-rule="evenodd">
        <g id="Contact" transform="translate(-169.000000, -207.000000)">
            <g id="get-in-touch" transform="translate(169.000000, 207.000000)">
                <g id="Group-3">
                    <path d="M67.1093314,137.953523 C104.970478,137.953523 135.654157,111.907611 129.912182,59.4565314 L64.0589073,59.4565314 L64.0589073,83.8858012 L102.996674,83.8858012 C100.125687,101.668873 87.9239904,112.805745 67.1093314,112.805745 C42.167628,112.805745 26.1977604,94.8430471 26.1977604,72.0304203 C26.1977604,49.2177934 42.3470648,31.2550951 66.750458,31.2550951 C78.9521546,31.2550951 90.7949778,36.6439046 97.0752629,45.9845077 L126.861758,45.9845077 C118.248795,22.0941189 93.4865286,6.10731743 66.750458,6.10731743 C28.1715643,6.10731743 0,35.2068887 0,72.0304203 C0,108.853952 28.1715643,137.953523 67.1093314,137.953523 Z" id="Path" fill="#0A0A0A" fill-rule="nonzero"></path>
                    <path d="M182.890872,137.773896 C205.679335,137.773896 223.623006,124.661126 228.826671,106.518801 L203.167221,106.518801 C200.296233,112.805745 192.759891,116.398285 184.146929,116.398285 C168.715371,116.398285 160.820156,107.237309 159.922972,96.639317 L229.903291,96.639317 C231.338785,62.8694441 209.268069,44.0086109 183.070309,44.0086109 C155.795928,44.0086109 135.878453,63.947206 135.878453,90.7116265 C135.878453,118.014928 155.437054,137.773896 182.890872,137.773896 Z M182.352562,63.947206 C190.606651,63.947206 200.116797,68.4378806 202.987784,80.4728885 L160.820156,80.4728885 C163.152833,70.4137774 170.868612,63.947206 182.352562,63.947206 Z" id="Shape" fill="#0A0A0A" fill-rule="nonzero"></path>
                    <path d="M281.446488,136.875761 C288.44452,136.875761 292.930437,136.157253 297.057482,134.899864 L297.057482,113.164999 C294.186494,114.242761 290.777197,114.781642 287.009026,114.781642 C276.242823,114.781642 271.756905,110.470595 271.756905,99.5133487 L271.756905,67.5397457 L297.057482,67.5397457 L297.057482,45.9845077 L271.756905,45.9845077 L271.756905,21.016357 L247.174075,21.016357 L247.174075,45.9845077 L229.050967,45.9845077 L229.050967,67.5397457 L247.174075,67.5397457 L247.174075,104.363277 C247.174075,126.457396 262.426196,136.875761 281.446488,136.875761 Z" id="Path" fill="#0A0A0A" fill-rule="nonzero"></path>
                    <path d="M352.054835,31.2550951 C360.847234,31.2550951 367.845266,24.2496427 367.845266,15.6275475 C367.845266,7.00545235 360.847234,0 352.054835,0 C343.621309,0 336.443841,7.00545235 336.443841,15.6275475 C336.443841,24.2496427 343.621309,31.2550951 352.054835,31.2550951 Z M339.853138,135.797999 L364.435968,135.797999 L364.435968,45.9845077 L339.853138,45.9845077 L339.853138,135.797999 Z" id="Shape" fill="#0A0A0A" fill-rule="nonzero"></path>
                    <path d="M380.271258,135.797999 L404.854088,135.797999 L404.854088,91.9690154 C404.854088,74.724825 413.287614,66.4619838 424.771564,66.4619838 C434.999457,66.4619838 440.561995,74.3655711 440.561995,87.2987138 L440.561995,135.797999 L465.144825,135.797999 L465.144825,83.1672932 C465.144825,59.8157854 452.225381,44.0086109 430.513539,44.0086109 C418.850152,44.0086109 409.69888,49.0381664 404.854088,56.2232457 L404.854088,45.9845077 L380.271258,45.9845077 L380.271258,135.797999 Z" id="Path" fill="#0A0A0A" fill-rule="nonzero"></path>
                    <rect id="Rectangle" stroke="#FFFFFF" stroke-width="2.66" fill="#F27D00" x="227.272375" y="44.6545077" width="72.1917271" height="23.9907043"></rect>
                    <rect id="Rectangle" stroke="#FFFFFF" stroke-width="2.66" fill="#F7D117" x="378.177363" y="44.6545077" width="27.3325483" height="92.4734916"></rect>
                </g>
                <g id="Group-2" transform="translate(120.383984, 146.229055)">
                    <path d="M52.3955208,135.797999 C59.3935527,135.797999 63.8794706,135.079491 68.006515,133.822103 L68.006515,112.087238 C65.1355276,113.164999 61.72623,113.70388 57.958059,113.70388 C47.1918561,113.70388 42.7059382,109.392833 42.7059382,98.4355868 L42.7059382,66.4619838 L68.006515,66.4619838 L68.006515,44.9067458 L42.7059382,44.9067458 L42.7059382,19.9385951 L18.1231082,19.9385951 L18.1231082,44.9067458 L2.84217094e-14,44.9067458 L2.84217094e-14,66.4619838 L18.1231082,66.4619838 L18.1231082,103.285515 C18.1231082,125.379634 33.375229,135.797999 52.3955208,135.797999 Z" id="Path" fill="#0A0A0A" fill-rule="nonzero"></path>
                    <path d="M117.755344,136.696134 C143.773668,136.696134 164.9472,116.218658 164.9472,89.8134916 C164.9472,63.5879521 143.773668,42.930849 117.755344,42.930849 C91.7370206,42.930849 70.5634882,63.5879521 70.5634882,89.8134916 C70.5634882,116.218658 91.7370206,136.696134 117.755344,136.696134 Z M117.755344,113.70388 C104.835901,113.70388 95.3257549,103.644769 95.3257549,89.8134916 C95.3257549,75.9822139 104.835901,65.9231028 117.755344,65.9231028 C130.495351,65.9231028 140.005497,75.9822139 140.005497,89.8134916 C140.005497,103.644769 130.495351,113.70388 117.755344,113.70388 Z" id="Shape" fill="#0A0A0A" fill-rule="nonzero"></path>
                    <path d="M207.518561,136.696134 C219.002511,136.696134 227.2566,131.666579 232.101391,124.481499 L232.101391,134.720237 L256.684221,134.720237 L256.684221,44.9067458 L232.101391,44.9067458 L232.101391,88.7357297 C232.101391,106.159547 224.565049,114.242761 213.619409,114.242761 C202.853206,114.242761 198.367289,106.518801 198.367289,92.8671503 L198.367289,44.9067458 L173.784459,44.9067458 L173.784459,96.9985709 C173.784459,120.709333 185.986155,136.696134 207.518561,136.696134 Z" id="Path" fill="#0A0A0A" fill-rule="nonzero"></path>
                    <path d="M313.969392,136.696134 C338.731659,136.696134 355.0604,121.068587 359.905191,100.411484 L334.425178,100.411484 C331.01588,108.494698 324.556158,114.422388 313.969392,114.422388 C301.049949,114.422388 291.539803,104.902158 291.539803,89.8134916 C291.539803,74.724825 301.049949,65.2045949 313.969392,65.2045949 C324.556158,65.2045949 331.01588,71.1322854 334.425178,79.2154996 L359.905191,79.2154996 C355.0604,58.5583965 338.731659,42.930849 313.969392,42.930849 C286.695012,42.930849 266.777536,63.767579 266.777536,89.8134916 C266.777536,115.859404 286.695012,136.696134 313.969392,136.696134 Z" id="Path" fill="#0A0A0A" fill-rule="nonzero"></path>
                    <path d="M393.325279,134.720237 L393.325279,90.8912535 C393.325279,73.6470631 401.758805,65.3842219 413.242755,65.3842219 C423.470648,65.3842219 429.033186,73.2878092 429.033186,86.2209519 L429.033186,134.720237 L453.616016,134.720237 L453.616016,82.0895313 C453.616016,58.7380235 440.696572,42.930849 418.98473,42.930849 C407.321343,42.930849 398.170071,47.9604045 393.325279,55.1454839 L393.325279,0 L368.74245,0 L368.74245,134.720237 L393.325279,134.720237 Z" id="Path" fill="#0A0A0A" fill-rule="nonzero"></path>
                    <rect id="Rectangle" stroke="#FFFFFF" stroke-width="2.66" fill="#A6D6C9" x="366.694703" y="-1.33" width="28.4540278" height="137.380237"></rect>
                </g>
            </g>
        </g>
    </g>
</svg>